<?xml version="1.0" encoding="UTF-8"?>
<svg id="Outlined" xmlns="http://www.w3.org/2000/svg" xmlns:xlink="http://www.w3.org/1999/xlink" viewBox="0 0 681.09 560.74">
  <defs>
    <style>
      .cls-1 {
        fill: #fff;
      }

      .cls-1, .cls-2 {
        stroke-width: 0px;
      }

      .cls-2 {
        fill: #010101;
      }

      .cls-3 {
        filter: url(#outer-glow-1);
      }
    </style>
    <filter id="outer-glow-1" filterUnits="userSpaceOnUse">
      <feOffset dx="0" dy="0"/>
      <feGaussianBlur result="blur" stdDeviation="9"/>
      <feFlood flood-color="#c9da2b" flood-opacity=".75"/>
      <feComposite in2="blur" operator="in"/>
      <feComposite in="SourceGraphic"/>
    </filter>
  </defs>
  <g class="cls-3">
    <path class="cls-2" d="m618.93,293.96c-16.96-26.73-58.7-39.61-59.04,5.97-.24,32.21,15.54,88.4,5.57,121.3-1.76,1.35-4.73-23.18-5.06-25.29-2.88-18.46-15.43-52.52-30.76-70.3-9.31-10.79-35.88-7.77-41.82,8.26-8.55,30.03,6.94,92.09-9.52,119.27-5.61-43.66-21.21-135.26-62.1-116.83-25.46,11.48,21.06,52.69,10.34,99.61-20.74,90.79-139.91,116.26-179.63,32.09-33.42-100.03,82.45-138.55,110.09-33.66,6.71,20.89,0,0-49.58,1.28-5.4-5.35,10.25-9.17,11.15-14.67-15.26-43.57-56.02,7.19-27.43,35.54,37.61,42.03,103.42.68,83.29-57.29-11.31-32.56-11.94-36.14-40.39-59.61-23.46-19.35-58.26-12.41-87.48,7.95-32.33,22.53-20.86,155.44-38.44,75.99-6.27-25.93,5.8-82.49-13.36-102.47-31.33,8.93-50.2,60.04-51.73,91.98.43,8.33-6.7,4.24-6.04-1.87-16.68-38.15,27.11-109.06,2.65-132.98-41.01-35.38-64.69,38.77-68.04,26.51-3.39-115.89,81.76-175.28,135.84-255.05,22.04,49.25,24.72,133.74,86.19,173.84-15.52-10.13-13.61-40.61-15.52-59-.63-6.07-6.45,13.06-11.6,8.17-3.78-16.56-4.18-36.03,10.1-48.19,18.25-16.7-5.11-7.27-13.12-6.65.71-11.78,16.07-17.53,25.22-22.84,12.26-5.39,15.4-7.22.38-11.67-2.86-1.08-10.92,2.77-8.03-3.19,5.56-9.78,52.99-2.08,31.19-16.33-25.61-11.65,41.75-15.55,49.5-8.94,18.6,1.28,45.97,22.75,36.33,45.46-4.59,15.26,7.83,24.81,7.61,3.17,14.41-8.49-6.86,76.62-10.01,50.06-4.81,2.81-7.95-7.48-11.28-10.05-58.6-86.18-95.49,39.35-32.65,75.58,36.44,21.01,82.16-5.04,97.56-39.92,14.2-32.15,23.81-91.09,31.53-124.33-2.26,7.06,11.21,21.58,43.28,42.41,59.32,38.53,104.53,105.75,94.81,196.67Z"/>
  </g>
  <g>
    <path class="cls-1" d="m432.58,300.7c.67,4.35,3.28,15.78,8.28,16.03-3.57,1.63-7.18,2.59-10.69,2.85-3.65.26-7.08-.31-9.9-1.49-1.74,1.78-4.77,2.68-7.65,3.02-2.88.34-5.62,0-6.31-1.18,2.28-.39,6.02-3.76,5.05-10.04-2.24,5.5-8.57,8.86-18.87,10.04-13.34,1.53-34.1-2.29-36.63-18.5-.69-9.92-1.12-19.89-1.39-29.83-2.24-2.9-2.95-6.69-3.07-9.56-.72-17.51,19.58-26.12,33.62-28.18,13.38-1.96,34.04-.24,39.48,14.84,1.3,3.61-10.15,12.79-15.42,13.53-1.14.16-1.94-.11-2.13-.83-2.77-10.97-11.76-13.99-19.11-13.28-6.54.63-12.52,4.27-11.88,9.21.77,5.9,4.84,8.19,13.04,7.52-.07,1.35-5.16,4.71-11.26,7.28.89,7.9,1.29,11.88,2.11,19.72,1.16,11.01,9.8,14.42,17.42,13.59,6.79-.74,12.65-4.87,11.87-9.66-.29-1.78-.43-2.67-.73-4.46-.37.04-.56.07-.94.11-8.62,1.01-13.19,2.05-12.95,5.02-3.52-.25-5.15-6.86-1.14-10.51-4.59-2.6-5.91-7.63-2.49-14.28,8.16,6.01,22.11,2.38,31.45.94,3.31-.51,7.42-.16,11.58.95-5.31.94-3.68,13.27-2.91,17.67.67,3.81.98,5.71,1.56,9.47Z"/>
    <path class="cls-1" d="m431.27,255.99c-5.38-17.54,4.37-36.33,19.92-44.71,14.85-8,37.01-8.68,47.2,7.33,5.95,10.44,10.76,20.11,15.21,31.25,2.8,1.81,4.62,5.07,5.4,8,5.02,18.89-11.42,37.62-28.33,43.46-11.7,4.04-41.44,9.59-46.88-7.44-1.59-9.81-3.75-19.76-6.52-29.3-3.24-2.09-5.06-5.56-6-8.6Zm54.77,13.62c-.17-1.43,3.8-6.21,8.22-10.84-2.95-7.95-4.71-11.98-9.11-20.38-4.32-8.67-14.29-14.32-23.59-10.2-6.05,2.68-9.99,8.95-7.29,14.18,3.22,6.26,7.88,7.41,15.32,4.52.41,1.49-3.12,6.42-8.19,10.78,3.34,7.99,4.7,11.89,7.06,19.62,3.32,10.85,12.86,12.18,20.21,9.51,6.53-2.37,11.63-8.31,10.31-13.24-1.58-5.89-5.5-6.79-12.93-3.95Z"/>
    <path class="cls-1" d="m489.24,194.42c1.89-4.52,4.36-7.79,7.18-9.79,3.29-2.33,7.23-3.1,10.82-2.11-.31-3.34,1.33-5.92,3.33-7.41,2.12-1.58,4.86-1.98,6.83-.49,18.72,15.29,37.53,30.78,53.95,48.59-4.39-13.92-11.74-25.85-19.7-37.96-5.37-7.29-13.91-18.71-23.76-18.47,1.63-5.15,3.99-8.86,6.86-11.14,3.36-2.66,7.57-3.53,11.66-2.53-.65-3.69.88-6.53,3.06-8.29,2.18-1.75,5.18-2.23,7.39-.59-2.88,2.61.09,8.98,7.5,17.61,16.2,19.98,31.47,40.52,34.21,66.91.71,6.72,2.69,8.67,5.6,6.3-.36,1.71-2.25,4.1-4.66,5.95s-5.32,3.27-7.31,2.81c-2.25,3.23-7.01,7.39-11.9,10.38-4.57,2.79-9.11,4.63-11.93,4.54-7.39-14.85-17.97-27.51-28.97-39.79,5.41,12.75,9.68,25.08,11.02,38.97.67,6.78,2.14,9.43,5.36,7.81-.37,1.63-2.43,3.52-4.38,4.58-1.95,1.05-3.72,1.36-4.81.15-1.04,2.39-4.26,5.24-8.36,7.54-3.52,1.96-7.4,3.34-11.45,3.68,5.3-3.09,4.8-16.36,3.88-20.89-3.85-17.96-11.45-33.36-20.73-49.05-4.51-6.78-11.75-17.39-20.68-17.31Z"/>
  </g>
  <g>
    <path class="cls-1" d="m101.86,226.41c4.82-12.67,10.41-23.55,19.45-33.8.61-3.75,3.2-7.57,5.94-10.42,3.99-4.16,8.55-7.55,13.37-10.11,5.18-5.98,12.37-16.34,8.98-19.56,4.1.17,7.85,1.58,10.96,4,2.88,2.25,5.13,5.49,5.89,9.18,6.73.41,13.05,2.67,18.64,6.53,12.94,8.93,21.25,27.03,10.66,41.04-7.3,9.47-14.48,19.1-20.23,29.62.4,3.93-.82,8.3-2.16,11.75-7.31,18.89-20.6,24.93-37.41,14.13-12.04-7.74-26.09-15.1-38.86-23.08,4.08,2.28,2.8-12.86,4.77-19.27Zm38.08,5.72c1.05-1.38,7.84-1.69,14.92-.95,5.05-8.43,8.06-12.09,14.45-19.77,8.97-10.79,6.99-19.13,1.39-22.79-5.25-3.43-13.54-2.99-18.17,1.91-5.54,5.86-4.4,10.03,2.56,14.37-1.38,1.13-8.53,1.01-15.58-.03-9.87,12.83-15.87,24.3-20.73,39.78,6.74,4.25,24.29,14.54,28.65,1.86,1.86-5.41-.03-10.01-7.47-14.39Z"/>
    <path class="cls-1" d="m208.59,261.36c-3.78,8.66-6.66,18.59-8.08,27.92-1.54,9.26,3.38,11.82,7.11,13.27.53,1.35-.82,1.33-3.42.32-2.6-1.01-6.48-2.9-9.67-5.61-.93,1-2.89.61-6.95-1.25-3.48-1.59-8.84-4.35-14.8-8.4,5.79,2.65,6.04-11.89,7.67-17.8,4.46-13.38,9.81-25.42,17.69-37.18-.17-4.34,1.79-9.36,3.83-12.22,2.49-3.48,6.01-6.2,9.72-8.18,3.18-5.84,6.04-13.2,3-15.13,4.02-.31,7.85.44,11.07,2.19,3.33,1.81,5.75,4.64,7.09,8.09,7.59-.11,14.79,1.42,20.39,3.94,11.75,5.28,15.85,19.17,10.28,30.65-2.5,5.29-3.75,7.87-6.12,13.09-2.62,5.77-6.58,9.53-11.48,11.65,1.6,3.47,1.78,7.08.65,10.46-2.89,8.7-4.12,13.23-5.74,23.38-1.38,8.66,2.56,11.38,6.17,12.11.22,1.38-1.37,1.8-3.84,1.35-2.47-.45-5.85-1.65-8.51-3.89-1.14,1.45-3.32,1.82-7.21.78-3.33-.9-8.23-2.89-13.74-6.24,5.76,1.69,6.13-11.83,7.34-17.27.68-3.05,1.05-4.52,1.87-7.4,2.75-9.69-1.35-13.34-6.39-15.44-3.17-1.22-4.76-1.86-7.95-3.19Zm22.37-24.49c-.56.71-5.32,1.74-10.97,2.28-1.74,2.96-2.58,4.44-4.21,7.43,3.66,1.56,5.49,2.32,9.13,3.75,5.03,1.97,11.5.86,15.69-7.13,1.01-1.93,1.52-2.89,2.56-4.84,4.55-8.57,1.57-13.89-2.96-15.83-4.16-1.78-9.75-.74-12.11,3.15-3.53,5.84-2.31,8.75,2.88,11.18Z"/>
    <path class="cls-1" d="m303.89,234.22c-.7-1.1-1.46-1.96-2.54-2.2,3.81-1.1,7.4-1.22,10.4-.58,2.2.47,4.89,1.82,6.56,3.25,2.33-.94,4.7-.93,6.56-.74,2.34.25,4.53,1.32,5.04,2.75-3.17-.2-5,2.78-4.15,9.58,2.93,21.19,7.07,41.46,13.68,61.84,2.29,6.51,5.61,9.29,9.69,9.14-1.44,2.8-10.37,3.71-16.11.52-3.32,3.21-11.9,3.88-23.71.09,3.95-.04,3.8-4.73,3.52-9.86-1.03-12.98-17.25-20.89-27.81-13.59-3.39,5.76-2.69,8.54,5.07,9.58-.3.95-7.04,4.24-13.41,6.4-1.01,3.75,1.29,5.9,4.26,6.26-1.12,2.5-9.53,2.36-13.51-1.56-4.54,2.7-12.67,1.87-19.13-2.62,3.1.38,4.99-3.09,7.85-6.4-1.2-7.02,5.95-17.32,13.71-21.41,8.86-11.74,18.15-23.12,27.27-34.66,2.54-3.35,7.5-11.83,6.77-15.81Zm2.8,28.03c-4.84,7.04-7.38,10.52-12.31,17.75,5.28.27,8.95.79,14.07,1.75-1.03-7.85-1.34-11.71-1.75-19.5Z"/>
  </g>
  <g>
    <path class="cls-1" d="m193.68,126.56l-4.12-2.32,6.03-10.68-2-1.13-20.85,36.94,1.39.79-.57,1-7.23-4.08.57-1,1.39.79,20.85-36.94-2-1.13-6.03,10.68-4.12-2.32,6.59-11.68,16.69,9.42-6.59,11.68Z"/>
    <path class="cls-1" d="m196.15,163.9l-5.73-3.24,14.67-25.98c.69-1.22.8-2.33-.42-3.02-.78-.44-1.58-.45-2.54-.18l-14.76,26.15,1.39.78-.57,1-7.12-4.02.57-1,1.39.79,20.85-36.94-1.39-.79.57-1,5.73,3.24-6.09,10.79c1.24-.25,2.54.04,3.82.76,3.12,1.76,3.72,4.45,1.84,7.79l-13.03,23.09,1.39.79-.57,1Z"/>
    <path class="cls-1" d="m214.95,167.39c-1.76,3.12-5.82,4.2-9.49,2.13-3.67-2.07-4.84-6.11-3.08-9.22l10.24-18.14c1.76-3.12,5.82-4.2,9.49-2.13s4.84,6.11,3.08,9.22l-5.37,9.51-8.23-4.65-6.25,11.07c-.69,1.22-.53,2.63.69,3.32,1.22.69,2.51.1,3.21-1.13l3.33-5.9,4.34,2.45-1.95,3.45Zm1.09-12.07l6.19-10.96c.69-1.22.53-2.63-.69-3.33-1.22-.69-2.51-.1-3.2,1.13l-6.19,10.96,3.9,2.2Z"/>
  </g>
</svg>